<svg width="36" height="36" viewBox="0 0 36 36" fill="none" xmlns="http://www.w3.org/2000/svg">
<path fill-rule="evenodd" clip-rule="evenodd" d="M18 36C27.9411 36 36 27.9411 36 18C36 8.05887 27.9411 0 18 0C8.05887 0 0 8.05887 0 18C0 27.9411 8.05887 36 18 36Z" fill="#8053AB"/>
<path fill-rule="evenodd" clip-rule="evenodd" d="M8.5 36C13.1944 36 17 32.1944 17 27.5C17 22.8056 13.1944 19 8.5 19C3.80558 19 0 22.8056 0 27.5C0 32.1944 3.80558 36 8.5 36Z" fill="#2E7CC5"/>
<path fill-rule="evenodd" clip-rule="evenodd" d="M12.5 28C14.9853 28 17 25.9853 17 23.5C17 21.0147 14.9853 19 12.5 19C10.0147 19 8 21.0147 8 23.5C8 25.9853 10.0147 28 12.5 28Z" fill="white"/>
</svg>
